<!-- Thank you! https://benadam.me/thoughts/react-svg-sprites/ -->

<svg xmlns="http://www.w3.org/2000/svg" xmlns:xlink="http://www.w3.org/1999/xlink">
	<defs>
		<linearGradient id="epicGradient" x1="16.9703" y1="7.03022" x2="7.05798" y2="16.948" gradientUnits="userSpaceOnUse">
			<stop stop-color="#4F75FF"></stop>
			<stop offset="1" stop-color="#30AFFF"></stop>
		</linearGradient>
	</defs>
	<symbol id="Keyboard" viewBox="0 0 24 24" fill="none">
		<path stroke="currentColor" stroke-linecap="round" stroke-linejoin="round" stroke-width="1.5"
			d="M7.75 12.75h8.5m-8.5 3.5h8.5m-4.5-6.5h-5a2 2 0 0 0-2 2v5.5a2 2 0 0 0 2 2h10.5a2 2 0 0 0 2-2v-5.5a2 2 0 0 0-2-2h-5.5Zm0 0v-1.5a1 1 0 0 1 1-1h4.5a1 1 0 0 0 1-1v-1.5" />
	</symbol>
	<symbol id="Linked" viewBox="0 0 24 24" fill="none">
		<path
			d="M11 14.25H12.5C15.1234 14.25 17.25 12.1234 17.25 9.5C17.25 6.87665 15.1234 4.75 12.5 4.75H9C6.65279 4.75 4.75 6.65279 4.75 9V10.25"
			stroke="currentColor"
			strokeWidth="1.5"
			strokeLinecap="round"
			strokeLinejoin="round"
		/>
		<path
			d="M13 9.75H11.5C8.87665 9.75 6.75 11.8766 6.75 14.5C6.75 17.1234 8.87665 19.25 11.5 19.25H15C17.3472 19.25 19.25 17.3472 19.25 15V13.75"
			stroke="currentColor"
			strokeWidth="1.5"
			strokeLinecap="round"
			strokeLinejoin="round"
		/>
	</symbol>
	<symbol id="Unlinked" viewBox="0 0 24 24" fill="none">
		<path
			d="M17.75 12.25L18 12C19.6569 10.3431 19.6569 7.65685 18 6C16.3431 4.34314 13.6569 4.34314 12 6L11.75 6.25"
			stroke="currentColor"
			strokeWidth="1.5"
			strokeLinecap="round"
			strokeLinejoin="round"
		/>
		<path
			d="M6.24996 11.75L5.99996 12C4.34311 13.6569 4.34311 16.3431 5.99996 18C7.65682 19.6569 10.3431 19.6569 12 18L12.25 17.75"
			stroke="currentColor"
			strokeWidth="1.5"
			strokeLinecap="round"
			strokeLinejoin="round"
		/>
		<path
			d="M8.25 4.75V6.25"
			stroke="currentColor"
			strokeWidth="1.5"
			strokeLinecap="round"
			strokeLinejoin="round"
		/>
		<path
			d="M15.75 17.75V19.25"
			stroke="currentColor"
			strokeWidth="1.5"
			strokeLinecap="round"
			strokeLinejoin="round"
		/>
		<path
			d="M6.25 8.25H4.75"
			stroke="currentColor"
			strokeWidth="1.5"
			strokeLinecap="round"
			strokeLinejoin="round"
		/>
		<path
			d="M19.25 15.75H17.75"
			stroke="currentColor"
			strokeWidth="1.5"
			strokeLinecap="round"
			strokeLinejoin="round"
		/>
	</symbol>
	<symbol id="TriangleAlert" viewBox="0 0 24 24" fill="none">
		<path
			stroke="currentColor"
			strokeLinecap="round"
			strokeLinejoin="round"
			strokeWidth="1.5"
			d="M12 9v3.75m-9.303 3.376c-.866 1.5.217 3.374 1.948 3.374h14.71c1.73 0 2.813-1.874 1.948-3.374L13.949 3.378c-.866-1.5-3.032-1.5-3.898 0L2.697 15.126zM12 15.75h.007v.008H12v-.008z"
		/>
	</symbol>
	<symbol id="TriangleSmall" viewBox="0 0 16 16">
		<g
			strokeWidth="1.5"
			fill="none"
			stroke="currentColor"
			strokeMiterlimit="10"
			strokeLinecap="round"
			strokeLinejoin="round"
		>
			<polygon points="2.5,0.5 14.5,8 2.5,15.5 " />
		</g>
	</symbol>
	<symbol
		id="ArrowLeft" viewBox="0 0 16 16">
		<path
			stroke="currentColor"
			strokeLinecap="round"
			strokeLinejoin="round"
			strokeMiterlimit="10"
			strokeWidth="2"
			d="M6 2 1 8l5 6"
		/>

		<path
			stroke="currentColor"
			strokeLinecap="round"
			strokeLinejoin="round"
			strokeMiterlimit="10"
			strokeWidth="2"
			d="M1.5 8H15"
		/>
	</symbol>

	<symbol id="ArrowRight" viewBox="0 0 16 16">
		<path
			stroke="currentColor"
			strokeLinecap="round"
			strokeLinejoin="round"
			strokeMiterlimit="10"
			strokeWidth="2"
			d="m10 2 5 6-5 6"
		/>
		<path
			stroke="currentColor"
			strokeLinecap="round"
			strokeLinejoin="round"
			strokeMiterlimit="10"
			strokeWidth="2"
			d="M14.5 8H1"
		/>
	</symbol>

	<symbol id="Sun" viewBox="0 0 16 16">
		<g
			strokeWidth="1"
			fill="none"
			stroke="currentColor"
			strokeMiterlimit="10"
			strokeLinecap="round"
			strokeLinejoin="round"
		>
			<line x1="8.5" y1="1.5" x2="8.5" y2="2.5" stroke="currentColor" />
			<line
				x1="13.45"
				y1="3.55"
				x2="12.743"
				y2="4.257"
				stroke="currentColor"
			/>
			<line x1="15.5" y1="8.5" x2="14.5" y2="8.5" stroke="currentColor" />
			<line
				x1="13.45"
				y1="13.45"
				x2="12.743"
				y2="12.743"
				stroke="currentColor"
			/>
			<line x1="8.5" y1="15.5" x2="8.5" y2="14.5" stroke="currentColor" />
			<line
				x1="3.55"
				y1="13.45"
				x2="4.257"
				y2="12.743"
				stroke="currentColor"
			/>
			<line x1="1.5" y1="8.5" x2="2.5" y2="8.5" stroke="currentColor" />
			<line x1="3.55" y1="3.55" x2="4.257" y2="4.257" stroke="currentColor" />
			<circle cx="8.5" cy="8.5" r="3" />
		</g>
	</symbol>

	<symbol id="Moon"
		viewBox="0 0 16 16">
		<g
			strokeWidth="1"
			fill="none"
			stroke="currentColor"
			strokeMiterlimit="10"
			strokeLinecap="round"
			strokeLinejoin="round"
		>
			<path
				d="M13.5,10.5 c-4.418,0-8-3.582-8-8c0-0.557,0.057-1.1,0.166-1.625C2.668,1.857,0.5,4.674,0.5,8c0,4.142,3.358,7.5,7.5,7.5 c3.326,0,6.143-2.168,7.125-5.166C14.6,10.443,14.057,10.5,13.5,10.5z" />
		</g>
	</symbol>

	<symbol
		id="ChevronLeft" viewBox="0 0 16 16">
		<path
			stroke="currentColor"
			strokeLinecap="round"
			strokeLinejoin="round"
			strokeMiterlimit="10"
			strokeWidth="2"
			d="M10.5.5 5.5 8l5 7.5"
		/>
	</symbol>

	<symbol id="ChevronRight" viewBox="0 0 16 16">
		<path
			stroke="currentColor"
			strokeLinecap="round"
			strokeLinejoin="round"
			strokeMiterlimit="10"
			strokeWidth="2"
			d="m5.5.5 5 7.5-5 7.5"
		/>
	</symbol>

	<symbol id="ChevronDown" viewBox="0 0 16 16">
		<g
			strokeWidth="1"
			fill="none"
			stroke="currentColor"
			strokeMiterlimit="10"
			strokeLinecap="round"
			strokeLinejoin="round"
		>
			<polyline points="15.5,5.5 8,10.5 0.5,5.5" />
		</g>
	</symbol>

	<symbol id="ChevronUp"
		viewBox="0 0 16 16">
		<g
			strokeWidth="1"
			fill="none"
			stroke="currentColor"
			strokeMiterlimit="10"
			strokeLinecap="round"
			strokeLinejoin="round"
		>
			<polyline points="15.5,10.5 8,5.5 0.5,10.5" />
		</g>
	</symbol>

	<symbol id="CheckSmall"
		viewBox="0 0 16 16">
		<path
			d="M7,11c-.256,0-.512-.098-.707-.293l-2-2c-.391-.391-.391-1.023,0-1.414s1.023-.391,1.414,0l1.293,1.293,3.293-3.293c.391-.391,1.023-.391,1.414,0s.391,1.023,0,1.414l-4,4c-.195,.195-.451,.293-.707,.293Z"
			fill="currentColor"
		/>
	</symbol>

	<symbol id="TriangleDownSmall" viewBox="0 0 16 16">
		<path
			d="M11.943,5.269A.5.5,0,0,0,11.5,5h-7a.5.5,0,0,0-.409.787l3.5,5a.5.5,0,0,0,.818,0l3.5-5A.5.5,0,0,0,11.943,5.269Z"
			fill="currentColor"
		/>
	</symbol>

	<symbol id="Question" viewBox="0 0 16 16">
		<g
			strokeWidth="1"
			fill="none"
			stroke="currentColor"
			strokeLinecap="round"
			strokeLinejoin="round"
		>
			<circle cx="8" cy="8" r="7.5" />
			<circle cx="8.003" cy="12" r="1" stroke="none" fill="currentColor" />
			<path
				d="M6.5,3.577c.953-.86,3.018-.845,3.423.635C10.453,6.134,8,6.142,8,9"
				stroke="currentColor"
			/>
		</g>
	</symbol>

	<symbol id="Remove" viewBox="0 0 16 16">
		<g
			strokeWidth="1"
			fill="none"
			stroke="currentColor"
			strokeLinecap="round"
			strokeLinejoin="round"
		>
			<circle cx="8" cy="8" r="7.5" />
			<line x1="11" y1="5" x2="5" y2="11" stroke="currentColor" />
			<line x1="5" y1="5" x2="11" y2="11" stroke="currentColor" />
		</g>
	</symbol>

	<symbol
		id="ExternalLink" viewBox="0 0 16 16">
		<g
			strokeWidth="1"
			fill="none"
			stroke="currentColor"
			strokeLinecap="round"
			strokeLinejoin="round"
		>
			<line x1="15.5" y1="0.5" x2="7.5" y2="8.5" stroke="currentColor" />
			<polyline points="8.5 0.5 15.5 0.5 15.5 7.5" stroke="currentColor" />
			<path d="M4.5.5H2A1.5,1.5,0,0,0,.5,2V14A1.5,1.5,0,0,0,2,15.5H14A1.5,1.5,0,0,0,15.5,14V11.5" />
		</g>
	</symbol>

	<symbol
		id="Refresh" viewBox="0 0 16 16">
		<g
			strokeWidth="1"
			fill="none"
			stroke="currentColor"
			strokeLinecap="round"
			strokeLinejoin="round"
		>
			<path d="M14.5,8a6.5,6.5,0,1,1-1.022-3.5" stroke="currentColor" />
			<polyline points="13.5 0.5 13.5 4.5 9.5 4.5" />
		</g>
	</symbol>

	<symbol id="Files"
		viewBox="0 0 16 16"
		
		>
		<path
			d="M2.1667 14.4167C2.16574 14.1866 2.21035 13.4915 2.29795 13.2787C2.38556 13.0659 2.51443 12.8727 2.67712 12.71C2.83981 12.5473 3.03312 12.4184 3.24587 12.3308C3.45862 12.2432 3.68662 12.1986 3.9167 12.1995H13.8334V1.00002H3.9167C3.68662 0.999054 3.45862 1.04366 3.24587 1.13127C3.03312 1.21887 2.83981 1.34774 2.67712 1.51043C2.51443 1.67312 2.38556 1.86643 2.29795 2.07918C2.21035 2.29194 2.16574 2.51994 2.1667 2.75002V14.4167Z"
			stroke="currentColor"
			strokeWidth="1.16667"
			strokeLinecap="round"
			strokeLinejoin="round"
		/>
		<path
			d="M2.16669 14.4167V15H12.6667"
			stroke="currentColor"
			strokeWidth="1.16667"
			strokeLinecap="round"
			strokeLinejoin="round"
		/>
		<path
			d="M5.66669 5.08331H10.3333"
			stroke="currentColor"
			strokeWidth="1.16667"
			strokeLinecap="round"
		/>
		<path
			d="M5.66669 8H10.3333"
			stroke="currentColor"
			strokeWidth="1.16667"
			strokeLinecap="round"
		/>
	</symbol>

	<symbol
		id="Clear" viewBox="0 0 16 16">
		<g
			strokeWidth="1.5"
			fill="none"
			stroke="currentColor"
			strokeMiterlimit="10"
			strokeLinecap="round"
			strokeLinejoin="round"
		>
			<circle cx="8" cy="8" r="7" />
			<line x1="3" y1="13" x2="13" y2="3" />
		</g>
	</symbol>

	<symbol id="Stop"
		viewBox="0 0 16 16">
		<g
			strokeWidth="2"
			fill="none"
			stroke="currentColor"
			strokeMiterlimit="10"
			strokeLinecap="round"
			strokeLinejoin="round"
		>
			<path
				d="M14.5,15.5h-13 c-0.552,0-1-0.448-1-1v-13c0-0.552,0.448-1,1-1h13c0.552,0,1,0.448,1,1v13C15.5,15.052,15.052,15.5,14.5,15.5z" />
		</g>
	</symbol>

	<symbol
		id="Deleted" viewBox="0 0 16 16">
		<rect width="14" height="14" x="1" y="1" stroke="currentColor" rx="2"	/>
		<path
			fill="currentColor"
			d="M7.993 5.112H5.52V11h2.423c1.673 0 2.833-1.092 2.833-2.97 0-1.868-1.11-2.918-2.782-2.918Zm-.06 4.864H6.73v-3.84h1.204c.98 0 1.578.64 1.578 1.929 0 1.28-.597 1.911-1.579 1.911Z"
		/>
	</symbol>

	<symbol
		id="Modified" viewBox="0 0 16 16">
		<rect width="14" height="14" x="1" y="1" stroke="currentColor" rx="2"	/>
		<path
			fill="currentColor"
			d="M6.35 7.749 7.512 11h.999L9.68 7.749c.136-.393.324-.973.46-1.391a28.474 28.474 0 0 0-.05 1.442l-.02 3.2h1.135V5.112h-1.56l-1.297 3.72c-.086.257-.188.632-.273.94-.086-.308-.188-.683-.282-.94L6.47 5.113H4.798V11h1.135l-.017-3.191c0-.478-.026-1.135-.052-1.57.128.418.325 1.049.487 1.51Z"
		/>
	</symbol>

	<symbol
		id="Added" viewBox="0 0 16 16">
		<rect width="14" height="14" x="1" y="1" stroke="currentColor" rx="2"	/>
		<path
			fill="currentColor"
			d="M9.763 11h1.314L8.764 5.112H7.237L4.924 11h1.263l.52-1.425h2.535L9.762 11ZM7.049 8.645l.546-1.494c.137-.384.282-.819.384-1.134.103.315.248.75.384 1.134l.546 1.494H7.05Z"
		/>
	</symbol>

	<symbol
		id="Renamed" viewBox="0 0 16 16">
		<rect width="14" height="14" x="1" y="1" stroke="currentColor" rx="2"	/>
		<path
			fill="currentColor"
			d="m10.414 9.967-.162-.674c-.12-.486-.359-.836-.751-1.024.623-.273 1.032-.802 1.032-1.442 0-1.084-.776-1.715-2.261-1.715H5.635V11h1.212V8.747h1.092c.768 0 .982.29 1.084.683l.23.879c.052.196.145.46.29.691h1.212v-.102a4.374 4.374 0 0 1-.341-.93ZM6.847 7.774V6.12H8.17c.69 0 1.109.188 1.109.794 0 .622-.444.861-1.195.861H6.847Z"
		/>
	</symbol>

	<symbol
		id="Close" viewBox="0 0 16 16">
		<path
			stroke="currentColor"
			d="M11.7816 4.03157C12.0062 3.80702 12.0062 3.44295 11.7816 3.2184C11.5571 2.99385 11.193 2.99385 10.9685 3.2184L7.50005 6.68682L4.03164 3.2184C3.80708 2.99385 3.44301 2.99385 3.21846 3.2184C2.99391 3.44295 2.99391 3.80702 3.21846 4.03157L6.68688 7.49999L3.21846 10.9684C2.99391 11.193 2.99391 11.557 3.21846 11.7816C3.44301 12.0061 3.80708 12.0061 4.03164 11.7816L7.50005 8.31316L10.9685 11.7816C11.193 12.0061 11.5571 12.0061 11.7816 11.7816C12.0062 11.557 12.0062 11.193 11.7816 10.9684L8.31322 7.49999L11.7816 4.03157Z"
		/>
	</symbol>

	<symbol
		id="Error" viewBox="0 0 24 24">
		<g fill="none" strokeWidth="2" stroke="currentColor">
			<path
				strokeLinecap="round"
				strokeLinejoin="round"
				d="M12 9v3.75m9-.75a9 9 0 11-18 0 9 9 0 0118 0zm-9 3.75h.008v.008H12v-.008z"
			/>
		</g>
	</symbol>

	<symbol
		id="Notify" viewBox="0 0 24 24">
		<g fill="none" strokeWidth="2" stroke="currentColor">
			<path
				strokeLinecap="round"
				strokeLinejoin="round"
				d="M14.857 17.082a23.848 23.848 0 005.454-1.31A8.967 8.967 0 0118 9.75v-.7V9A6 6 0 006 9v.75a8.967 8.967 0 01-2.312 6.022c1.733.64 3.56 1.085 5.455 1.31m5.714 0a24.255 24.255 0 01-5.714 0m5.714 0a3 3 0 11-5.714 0"
			/>
		</g>
	</symbol>

	<symbol
		id="User" viewBox="0 0 24 24">
		<g strokeLinecap="square" strokeLinejoin="miter" strokeWidth="2" fill="none"
			stroke="currentColor" strokeMiterlimit="10">
			<path d="M5.14,20.599c.649-3.195,3.474-5.599,6.86-5.599s6.205,2.399,6.858,5.589"
				strokeLinecap="butt" stroke="currentColor" />
			<circle cx="12" cy="12" r="11" />
			<circle cx="12" cy="9" r="3" stroke="currentColor" />
		</g>
	</symbol>

	<symbol
		id="Success" viewBox="0 0 24 24">
		<g fill="none" strokeWidth="2" stroke="currentColor">
			<path
				strokeLinecap="round"
				strokeLinejoin="round"
				d="M4.5 12.75l6 6 9-13.5"
			/>
		</g>
	</symbol>

	<symbol id="Sun" viewBox="0 0 24 24" fill="none">
		<circle cx="12" cy="12" r="3.25" stroke="currentColor" stroke-linecap="round"
			stroke-linejoin="round" stroke-width="1.5"></circle>
		<path stroke="currentColor" stroke-linecap="round" stroke-linejoin="round" stroke-width="1.5"
			d="M12 2.75V4.25"></path>
		<path stroke="currentColor" stroke-linecap="round" stroke-linejoin="round" stroke-width="1.5"
			d="M17.25 6.75L16.0659 7.93416"></path>
		<path stroke="currentColor" stroke-linecap="round" stroke-linejoin="round" stroke-width="1.5"
			d="M21.25 12.0001L19.75 12.0001"></path>
		<path stroke="currentColor" stroke-linecap="round" stroke-linejoin="round" stroke-width="1.5"
			d="M17.25 17.2501L16.0659 16.066"></path>
		<path stroke="currentColor" stroke-linecap="round" stroke-linejoin="round" stroke-width="1.5"
			d="M12 19.75V21.25"></path>
		<path stroke="currentColor" stroke-linecap="round" stroke-linejoin="round" stroke-width="1.5"
			d="M7.9341 16.0659L6.74996 17.25"></path>
		<path stroke="currentColor" stroke-linecap="round" stroke-linejoin="round" stroke-width="1.5"
			d="M4.25 12.0001L2.75 12.0001"></path>
		<path stroke="currentColor" stroke-linecap="round" stroke-linejoin="round" stroke-width="1.5"
			d="M7.93405 7.93423L6.74991 6.75003"></path>
	</symbol>

	<symbol id="Moon" viewBox="0 0 24 24" fill="none">
		<path
			d="M18.25 15.0314C17.7575 15.1436 17.2459 15.2027 16.7209 15.2027C12.8082 15.2027 9.63607 11.9185 9.63607 7.86709C9.63607 6.75253 9.87614 5.69603 10.3057 4.75C7.12795 5.47387 4.75 8.40659 4.75 11.9143C4.75 15.9657 7.9221 19.25 11.8348 19.25C14.6711 19.25 17.1182 17.5242 18.25 15.0314Z"
			stroke="currentColor" stroke-width="1.5" stroke-linecap="round" stroke-linejoin="round"></path>
	</symbol>

	<symbol id="Laptop" viewBox="0 0 24 24" fill="none">
		<path
			d="M5.75 5.75C5.75 5.19772 6.19772 4.75 6.75 4.75H17.25C17.8023 4.75 18.25 5.19772 18.25 5.75V14.25H5.75V5.75Z"
			stroke="currentColor" stroke-width="1.5" stroke-linecap="round" stroke-linejoin="round"></path>
		<path
			d="M18.25 14.5L18.9961 18.044C19.1269 18.6655 18.6527 19.25 18.0175 19.25H5.98243C5.34725 19.25 4.87302 18.6655 5.00388 18.044L5.74998 14.5"
			stroke="currentColor" stroke-width="1.5" stroke-linecap="round" stroke-linejoin="round"></path>
	</symbol>

	<symbol id="Video" viewBox="0 0 24 24" fill="none">
		<path stroke="currentColor" stroke-linecap="round" stroke-linejoin="round" stroke-width="1.5"
			d="M4.75 6.75C4.75 5.64543 5.64543 4.75 6.75 4.75H17.25C18.3546 4.75 19.25 5.64543 19.25 6.75V17.25C19.25 18.3546 18.3546 19.25 17.25 19.25H6.75C5.64543 19.25 4.75 18.3546 4.75 17.25V6.75Z"></path>
		<path stroke="currentColor" stroke-linecap="round" stroke-linejoin="round" stroke-width="1.5"
			d="M15.25 12L9.75 8.75V15.25L15.25 12Z"></path>
	</symbol>

	<symbol id="EpicWeb" viewBox="0 0 24 24" fill="none">
		<path
			d="M12.438 11.5677C12.0131 11.8026 11.5249 12.0534 10.9784 12.3047C8.80704 13.3031 5.70429 14.314 1.986 14.3555L1.55773 14.3603L1.48003 13.9391C1.36509 13.316 1.29793 12.6714 1.29793 12.006C1.29793 6.10441 6.09863 1.30372 12.0002 1.30372C13.6287 1.30372 15.1745 1.66961 16.5585 2.32369L17.9801 1.59897C16.2189 0.582162 14.1769 0 12.0002 0C5.38709 0 0 5.38709 0 12.0002C0 14.6402 0.858474 17.0847 2.31072 19.0692C4.79741 18.6457 6.35749 17.6495 6.35749 17.6495C6.35749 17.6495 5.36137 19.2075 4.93785 21.6946C6.92114 23.1439 9.36321 24.0005 12.0002 24.0005C18.6134 24.0005 24.0005 18.6134 24.0005 12.0002C24.0005 9.82732 23.4199 7.78762 22.4053 6.02738L21.6818 7.44613C22.3364 8.83057 22.7025 10.3769 22.7025 12.006C22.7025 17.9076 17.9018 22.7083 12.0002 22.7083C11.3345 22.7083 10.6959 22.6411 10.0681 22.5264L9.646 22.4493L9.65079 22.0203C9.6923 18.2991 10.7031 15.1964 11.7016 13.0257C11.9527 12.4797 12.2033 11.9921 12.438 11.5677Z"
			fill="currentColor" />
		<path d="M18.2525 9.31052L15.4992 8.50683L14.6953 5.74778L23.8291 0.171387L18.2525 9.31052Z"
			fill="currentColor" />
	</symbol>

	<symbol id="EpicWebGradient" viewBox="0 0 24 24" fill="none">
		<path
			d="M12.438 11.5677C12.0131 11.8026 11.5249 12.0534 10.9784 12.3047C8.80704 13.3031 5.70429 14.314 1.986 14.3555L1.55773 14.3603L1.48003 13.9391C1.36509 13.316 1.29793 12.6714 1.29793 12.006C1.29793 6.10441 6.09863 1.30372 12.0002 1.30372C13.6287 1.30372 15.1745 1.66961 16.5585 2.32369L17.9801 1.59897C16.2189 0.582162 14.1769 0 12.0002 0C5.38709 0 0 5.38709 0 12.0002C0 14.6402 0.858474 17.0847 2.31072 19.0692C4.79741 18.6457 6.35749 17.6495 6.35749 17.6495C6.35749 17.6495 5.36137 19.2075 4.93785 21.6946C6.92114 23.1439 9.36321 24.0005 12.0002 24.0005C18.6134 24.0005 24.0005 18.6134 24.0005 12.0002C24.0005 9.82732 23.4199 7.78762 22.4053 6.02738L21.6818 7.44613C22.3364 8.83057 22.7025 10.3769 22.7025 12.006C22.7025 17.9076 17.9018 22.7083 12.0002 22.7083C11.3345 22.7083 10.6959 22.6411 10.0681 22.5264L9.646 22.4493L9.65079 22.0203C9.6923 18.2991 10.7031 15.1964 11.7016 13.0257C11.9527 12.4797 12.2033 11.9921 12.438 11.5677Z"
			fill="url(#epicGradient)"
		>
		</path>
		<path
			d="M18.2525 9.31052L15.4992 8.50683L14.6953 5.74778L23.8291 0.171387L18.2525 9.31052Z"
			fill="currentColor"
		>
		</path>
	</symbol>

	<symbol id="FastForward" viewBox="0 0 24 24" fill="none">
		<g strokeLinejoin="round" strokeLinecap="round" strokeWidth="2" fill="none"
			stroke="currentColor">
			<path d="M13 19l9-7-9-7v14z" />
			<path d="M2 19l9-7-9-7v14z" />
		</g>
	</symbol>

	<symbol id="Discord" viewBox="0 0 15 15" fill="none">
		<path
			fill-rule="evenodd"
			clip-rule="evenodd"
			fill="currentColor"
			d="M5.07451 1.82584C5.03267 1.81926 4.99014 1.81825 4.94803 1.82284C4.10683 1.91446 2.82673 2.36828 2.07115 2.77808C2.02106 2.80525 1.97621 2.84112 1.93869 2.88402C1.62502 3.24266 1.34046 3.82836 1.11706 4.38186C0.887447 4.95076 0.697293 5.55032 0.588937 5.98354C0.236232 7.39369 0.042502 9.08728 0.0174948 10.6925C0.0162429 10.7729 0.0351883 10.8523 0.0725931 10.9234C0.373679 11.496 1.02015 12.027 1.66809 12.4152C2.32332 12.8078 3.08732 13.1182 3.70385 13.1778C3.85335 13.1922 4.00098 13.1358 4.10282 13.0255C4.2572 12.8581 4.5193 12.4676 4.71745 12.1643C4.80739 12.0267 4.89157 11.8953 4.95845 11.7901C5.62023 11.9106 6.45043 11.9801 7.50002 11.9801C8.54844 11.9801 9.37796 11.9107 10.0394 11.7905C10.1062 11.8957 10.1903 12.0269 10.2801 12.1643C10.4783 12.4676 10.7404 12.8581 10.8947 13.0255C10.9966 13.1358 11.1442 13.1922 11.2937 13.1778C11.9102 13.1182 12.6742 12.8078 13.3295 12.4152C13.9774 12.027 14.6239 11.496 14.925 10.9234C14.9624 10.8523 14.9813 10.7729 14.9801 10.6925C14.9551 9.08728 14.7613 7.39369 14.4086 5.98354C14.3003 5.55032 14.1101 4.95076 13.8805 4.38186C13.6571 3.82836 13.3725 3.24266 13.0589 2.88402C13.0214 2.84112 12.9765 2.80525 12.9264 2.77808C12.1708 2.36828 10.8907 1.91446 10.0495 1.82284C10.0074 1.81825 9.96489 1.81926 9.92305 1.82584C9.71676 1.85825 9.5391 1.96458 9.40809 2.06355C9.26977 2.16804 9.1413 2.29668 9.0304 2.42682C8.86968 2.61544 8.71437 2.84488 8.61428 3.06225C8.27237 3.03501 7.90138 3.02 7.5 3.02C7.0977 3.02 6.72593 3.03508 6.38337 3.06244C6.28328 2.84501 6.12792 2.61549 5.96716 2.42682C5.85626 2.29668 5.72778 2.16804 5.58947 2.06355C5.45846 1.96458 5.2808 1.85825 5.07451 1.82584ZM11.0181 11.5382C11.0395 11.5713 11.0615 11.6051 11.0838 11.6392C11.2169 11.843 11.3487 12.0385 11.4508 12.1809C11.8475 12.0916 12.352 11.8818 12.8361 11.5917C13.3795 11.2661 13.8098 10.8918 14.0177 10.5739C13.9852 9.06758 13.7993 7.50369 13.4773 6.21648C13.38 5.82759 13.2038 5.27021 12.9903 4.74117C12.7893 4.24326 12.5753 3.82162 12.388 3.5792C11.7376 3.24219 10.7129 2.88582 10.0454 2.78987C10.0308 2.79839 10.0113 2.81102 9.98675 2.82955C9.91863 2.881 9.84018 2.95666 9.76111 3.04945C9.71959 3.09817 9.68166 3.1471 9.64768 3.19449C9.953 3.25031 10.2253 3.3171 10.4662 3.39123C11.1499 3.6016 11.6428 3.89039 11.884 4.212C12.0431 4.42408 12.0001 4.72494 11.788 4.884C11.5759 5.04306 11.2751 5.00008 11.116 4.788C11.0572 4.70961 10.8001 4.4984 10.1838 4.30877C9.58933 4.12585 8.71356 3.98 7.5 3.98C6.28644 3.98 5.41067 4.12585 4.81616 4.30877C4.19988 4.4984 3.94279 4.70961 3.884 4.788C3.72494 5.00008 3.42408 5.04306 3.212 4.884C2.99992 4.72494 2.95694 4.42408 3.116 4.212C3.35721 3.89039 3.85011 3.6016 4.53383 3.39123C4.77418 3.31727 5.04571 3.25062 5.35016 3.19488C5.31611 3.14738 5.27808 3.09831 5.23645 3.04945C5.15738 2.95666 5.07893 2.881 5.01081 2.82955C4.98628 2.81102 4.96674 2.79839 4.95217 2.78987C4.28464 2.88582 3.25999 3.24219 2.60954 3.5792C2.42226 3.82162 2.20825 4.24326 2.00729 4.74117C1.79376 5.27021 1.61752 5.82759 1.52025 6.21648C1.19829 7.50369 1.01236 9.06758 0.97986 10.5739C1.18772 10.8918 1.61807 11.2661 2.16148 11.5917C2.64557 11.8818 3.15003 12.0916 3.5468 12.1809C3.64885 12.0385 3.78065 11.843 3.9138 11.6392C3.93626 11.6048 3.95838 11.5708 3.97996 11.5375C3.19521 11.2591 2.77361 10.8758 2.50064 10.4664C2.35359 10.2458 2.4132 9.94778 2.63377 9.80074C2.85435 9.65369 3.15236 9.71329 3.29941 9.93387C3.56077 10.3259 4.24355 11.0201 7.50002 11.0201C10.7565 11.0201 11.4392 10.326 11.7006 9.93386C11.8477 9.71329 12.1457 9.65369 12.3663 9.80074C12.5869 9.94779 12.6465 10.2458 12.4994 10.4664C12.2262 10.8762 11.8041 11.2598 11.0181 11.5382ZM4.08049 7.01221C4.32412 6.74984 4.65476 6.60162 5.00007 6.59998C5.34538 6.60162 5.67603 6.74984 5.91966 7.01221C6.16329 7.27459 6.30007 7.62974 6.30007 7.99998C6.30007 8.37021 6.16329 8.72536 5.91966 8.98774C5.67603 9.25011 5.34538 9.39833 5.00007 9.39998C4.65476 9.39833 4.32412 9.25011 4.08049 8.98774C3.83685 8.72536 3.70007 8.37021 3.70007 7.99998C3.70007 7.62974 3.83685 7.27459 4.08049 7.01221ZM9.99885 6.59998C9.65354 6.60162 9.3229 6.74984 9.07926 7.01221C8.83563 7.27459 8.69885 7.62974 8.69885 7.99998C8.69885 8.37021 8.83563 8.72536 9.07926 8.98774C9.3229 9.25011 9.65354 9.39833 9.99885 9.39998C10.3442 9.39833 10.6748 9.25011 10.9184 8.98774C11.1621 8.72536 11.2989 8.37021 11.2989 7.99998C11.2989 7.62974 11.1621 7.27459 10.9184 7.01221C10.6748 6.74984 10.3442 6.60162 9.99885 6.59998Z"
		/>
	</symbol>

	<symbol id="Chat" viewBox="0 0 15 15" fill="none">
		<path
			fill="currentColor"
			fill-rule="evenodd"
			clip-rule="evenodd"
			d="M12.5 3L2.5 3.00002C1.67157 3.00002 1 3.6716 1 4.50002V9.50003C1 10.3285 1.67157 11 2.5 11H7.50003C7.63264 11 7.75982 11.0527 7.85358 11.1465L10 13.2929V11.5C10 11.2239 10.2239 11 10.5 11H12.5C13.3284 11 14 10.3285 14 9.50003V4.5C14 3.67157 13.3284 3 12.5 3ZM2.49999 2.00002L12.5 2C13.8807 2 15 3.11929 15 4.5V9.50003C15 10.8807 13.8807 12 12.5 12H11V14.5C11 14.7022 10.8782 14.8845 10.6913 14.9619C10.5045 15.0393 10.2894 14.9965 10.1464 14.8536L7.29292 12H2.5C1.11929 12 0 10.8807 0 9.50003V4.50002C0 3.11931 1.11928 2.00003 2.49999 2.00002Z"
		/>
	</symbol>
	<symbol id="House" fill="none" viewBox="0 0 24 24">
		<path
			stroke="currentColor"
			strokeLinecap="round"
			strokeLinejoin="round"
			strokeWidth="1.5"
			d="M6.75024 19.2502H17.2502C18.3548 19.2502 19.2502 18.3548 19.2502 17.2502V9.75025L12.0002 4.75024L4.75024 9.75025V17.2502C4.75024 18.3548 5.64568 19.2502 6.75024 19.2502Z"
		/>
		<path
			stroke="currentColor"
			strokeLinecap="round"
			strokeLinejoin="round"
			strokeWidth="1.5"
			d="M9.74963 15.7493C9.74963 14.6447 10.6451 13.7493 11.7496 13.7493H12.2496C13.3542 13.7493 14.2496 14.6447 14.2496 15.7493V19.2493H9.74963V15.7493Z"
		/>
	</symbol>

	<symbol id="WifiNoConnection" fill="none" viewBox="0 0 24 24">
		<circle cx="12" cy="18" r="1" fill="currentColor"/>
		<path stroke="currentColor" stroke-linecap="round" stroke-linejoin="round" stroke-width="1.5" d="M9.5 14.5627C10.2016 14.0516 11.0656 13.75 12 13.75C12.9344 13.75 13.7984 14.0516 14.5 14.5627"/>
		<path stroke="currentColor" stroke-linecap="round" stroke-linejoin="round" stroke-width="1.5" d="M16.7128 11.2277C15.952 10.6973 15.0976 10.2918 14.1794 10.041M7.2876 11.2277C8.19156 10.5975 9.22762 10.1436 10.3459 9.91602"/>
		<path stroke="currentColor" stroke-linecap="round" stroke-linejoin="round" stroke-width="1.5" d="M4.75 8.25C6.73421 6.86597 9 5.75 12 5.75C12.6875 5.75 13.3364 5.8086 13.9522 5.9156M19.25 8.25C18.6425 7.82628 18.0087 7.42768 17.3354 7.07854"/>
		<path stroke="currentColor" stroke-linecap="round" stroke-linejoin="round" stroke-width="1.5" d="M18.25 5.75L6.75 17.25"/>
	</symbol>
	<symbol id="Copy" viewBox="0 0 16 16" fill="none">
		<path
			stroke="currentColor"
			stroke-linecap="round"
			stroke-linejoin="round"
			stroke-width="1.5"
			d="M5.5 4.5h6a1 1 0 0 1 1 1v6a1 1 0 0 1-1 1h-6a1 1 0 0 1-1-1v-6a1 1 0 0 1 1-1Z"
		/>
		<path
			stroke="currentColor"
			stroke-linecap="round"
			stroke-linejoin="round"
			stroke-width="1.5"
			d="M3.5 10.5a1 1 0 0 1-1-1v-6a1 1 0 0 1 1-1h6a1 1 0 0 1 1 1"
		/>
	</symbol>


</svg>
