<!-- Thank you! https://benadam.me/thoughts/react-svg-sprites/ -->

<svg xmlns="http://www.w3.org/2000/svg" xmlns:xlink="http://www.w3.org/1999/xlink">
	<defs>
		<linearGradient id="gradientDark" x1="49.496" x2="20.585" y1="20.504" y2="49.431" gradientUnits="userSpaceOnUse">
			<stop stop-color="#4F75FF"></stop>
			<stop offset="1" stop-color="#30AFFF"></stop>
		</linearGradient>
		<linearGradient id="gradientLight" x1="49.496" x2="20.585" y1="20.504" y2="49.431" gradientUnits="userSpaceOnUse">
			<stop stop-color="#4F75FF"></stop>
			<stop offset="1" stop-color="#30AFFF"></stop>
		</linearGradient>
	</defs>

	<symbol id="monochrome" viewBox="0 0 24 24" fill="none">
		<path
			d="M12.438 11.5677C12.0131 11.8026 11.5249 12.0534 10.9784 12.3047C8.80704 13.3031 5.70429 14.314 1.986 14.3555L1.55773 14.3603L1.48003 13.9391C1.36509 13.316 1.29793 12.6714 1.29793 12.006C1.29793 6.10441 6.09863 1.30372 12.0002 1.30372C13.6287 1.30372 15.1745 1.66961 16.5585 2.32369L17.9801 1.59897C16.2189 0.582162 14.1769 0 12.0002 0C5.38709 0 0 5.38709 0 12.0002C0 14.6402 0.858474 17.0847 2.31072 19.0692C4.79741 18.6457 6.35749 17.6495 6.35749 17.6495C6.35749 17.6495 5.36137 19.2075 4.93785 21.6946C6.92114 23.1439 9.36321 24.0005 12.0002 24.0005C18.6134 24.0005 24.0005 18.6134 24.0005 12.0002C24.0005 9.82732 23.4199 7.78762 22.4053 6.02738L21.6818 7.44613C22.3364 8.83057 22.7025 10.3769 22.7025 12.006C22.7025 17.9076 17.9018 22.7083 12.0002 22.7083C11.3345 22.7083 10.6959 22.6411 10.0681 22.5264L9.646 22.4493L9.65079 22.0203C9.6923 18.2991 10.7031 15.1964 11.7016 13.0257C11.9527 12.4797 12.2033 11.9921 12.438 11.5677Z"
			fill="currentColor" />
		<path d="M18.2525 9.31052L15.4992 8.50683L14.6953 5.74778L23.8291 0.171387L18.2525 9.31052Z"
			fill="currentColor" />
	</symbol>

	<symbol id="light" viewBox="0 0 24 24" fill="none">
		<path
			d="M12.438 11.5677C12.0131 11.8026 11.5249 12.0534 10.9784 12.3047C8.80704 13.3031 5.70429 14.314 1.986 14.3555L1.55773 14.3603L1.48003 13.9391C1.36509 13.316 1.29793 12.6714 1.29793 12.006C1.29793 6.10441 6.09863 1.30372 12.0002 1.30372C13.6287 1.30372 15.1745 1.66961 16.5585 2.32369L17.9801 1.59897C16.2189 0.582162 14.1769 0 12.0002 0C5.38709 0 0 5.38709 0 12.0002C0 14.6402 0.858474 17.0847 2.31072 19.0692C4.79741 18.6457 6.35749 17.6495 6.35749 17.6495C6.35749 17.6495 5.36137 19.2075 4.93785 21.6946C6.92114 23.1439 9.36321 24.0005 12.0002 24.0005C18.6134 24.0005 24.0005 18.6134 24.0005 12.0002C24.0005 9.82732 23.4199 7.78762 22.4053 6.02738L21.6818 7.44613C22.3364 8.83057 22.7025 10.3769 22.7025 12.006C22.7025 17.9076 17.9018 22.7083 12.0002 22.7083C11.3345 22.7083 10.6959 22.6411 10.0681 22.5264L9.646 22.4493L9.65079 22.0203C9.6923 18.2991 10.7031 15.1964 11.7016 13.0257C11.9527 12.4797 12.2033 11.9921 12.438 11.5677Z"
			fill="url(#gradientLight)"
		>
		</path>
		<path
			d="M18.2525 9.31052L15.4992 8.50683L14.6953 5.74778L23.8291 0.171387L18.2525 9.31052Z"
			fill="#333753"
		>
		</path>
	</symbol>

	<symbol id="dark" viewBox="0 0 24 24" fill="none">
		<path
			d="M12.438 11.5677C12.0131 11.8026 11.5249 12.0534 10.9784 12.3047C8.80704 13.3031 5.70429 14.314 1.986 14.3555L1.55773 14.3603L1.48003 13.9391C1.36509 13.316 1.29793 12.6714 1.29793 12.006C1.29793 6.10441 6.09863 1.30372 12.0002 1.30372C13.6287 1.30372 15.1745 1.66961 16.5585 2.32369L17.9801 1.59897C16.2189 0.582162 14.1769 0 12.0002 0C5.38709 0 0 5.38709 0 12.0002C0 14.6402 0.858474 17.0847 2.31072 19.0692C4.79741 18.6457 6.35749 17.6495 6.35749 17.6495C6.35749 17.6495 5.36137 19.2075 4.93785 21.6946C6.92114 23.1439 9.36321 24.0005 12.0002 24.0005C18.6134 24.0005 24.0005 18.6134 24.0005 12.0002C24.0005 9.82732 23.4199 7.78762 22.4053 6.02738L21.6818 7.44613C22.3364 8.83057 22.7025 10.3769 22.7025 12.006C22.7025 17.9076 17.9018 22.7083 12.0002 22.7083C11.3345 22.7083 10.6959 22.6411 10.0681 22.5264L9.646 22.4493L9.65079 22.0203C9.6923 18.2991 10.7031 15.1964 11.7016 13.0257C11.9527 12.4797 12.2033 11.9921 12.438 11.5677Z"
			fill="url(#gradientDark)"
		>
		</path>
		<path
			d="M18.2525 9.31052L15.4992 8.50683L14.6953 5.74778L23.8291 0.171387L18.2525 9.31052Z"
			fill="#FFF"
		>
		</path>
	</symbol>
</svg>
